<svg width="66" height="65" viewBox="0 0 66 65" fill="none" xmlns="http://www.w3.org/2000/svg">
<g clip-path="url(#clip0_9971_4749)">
<path d="M56 0H10C4.47715 0 0 4.47715 0 10V55C0 60.5228 4.47715 65 10 65H56C61.5228 65 66 60.5228 66 55V10C66 4.47715 61.5228 0 56 0Z" fill="#F8F8F8"/>
<path d="M44.5737 18C45.3391 18 45.9604 18.6272 45.9604 19.4V24.6598L33.4816 37.2598L33.4733 43.193L39.3611 43.2014L45.9604 36.5388V44.6C45.9604 45.3728 45.3391 46 44.5737 46H22.3867C21.6212 46 21 45.3728 21 44.6V19.4C21 18.6272 21.6212 18 22.3867 18H44.5737ZM47.0392 27.5312L49 29.5108L38.2143 40.4L36.2508 40.3972L36.2536 38.4204L47.0392 27.5312ZM33.4802 32H26.5468V34.8H33.4802V32ZM37.6403 26.4H26.5468V29.2H37.6403V26.4Z" fill="#2A2A2A"/>
</g>
<defs>
<clipPath id="clip0_9971_4749">
<rect width="66" height="65" fill="white"/>
</clipPath>
</defs>
</svg>
