<svg width="59" height="59" viewBox="0 0 59 59" fill="none" xmlns="http://www.w3.org/2000/svg">
<path d="M29.2393 3.5C41.7975 3.50014 51.9775 13.681 51.9775 26.2393C51.9774 38.7974 41.7974 48.9774 29.2393 48.9775C16.681 48.9775 6.50014 38.7975 6.5 26.2393C6.5 13.6809 16.6809 3.5 29.2393 3.5Z" fill="none" stroke="none"/>
<g clip-path="url(#clip0_9971_4767)">
<path d="M37.2813 17H21.7187C20.7695 17 20 17.7695 20 18.7187V34.2812C20 35.2305 20.7695 36 21.7187 36H37.2812C38.2305 36 39 35.2305 39 34.2812V18.7187C39 17.7695 38.2305 17 37.2813 17ZM25.8794 33.4059C25.8794 33.6821 25.6555 33.906 25.3792 33.906H23.2501C22.9739 33.906 22.75 33.6821 22.75 33.4059V24.4808C22.9739 24.2045 22.9739 23.9806 23.2501 23.9806H25.3792C25.6555 23.9806 25.8794 24.2045 25.8794 24.4808V33.4059ZM24.3147 23.1393C23.1976 23.1393 22.292 22.2337 22.292 21.1166C22.292 19.9996 23.1976 19.094 24.3147 19.094C25.4318 19.094 26.3373 19.9996 26.3373 21.1166C26.3373 22.2337 25.4318 23.1393 24.3147 23.1393ZM37.006 33.4461C37.006 33.7001 36.8001 33.906 36.5461 33.906H34.2614C34.0075 33.906 33.8016 33.7001 33.8016 33.4461V29.2598C33.8016 28.6353 33.9847 26.5231 32.1695 26.5231C30.7615 26.5231 30.4759 27.9688 30.4185 28.6176V33.4461C30.4185 33.7001 30.2126 33.906 29.9586 33.906H27.749C27.495 33.906 27.2891 33.7001 27.2891 33.4461V24.4405C27.495 24.1865 27.495 23.9806 27.749 23.9806H29.9586C30.2126 23.9806 30.4185 24.1865 30.4185 24.4405V25.2191C30.9406 24.4356 31.7165 23.8308 33.3686 23.8308C37.0269 23.8308 37.006 27.2487 37.006 29.1266V33.4461Z" fill="#FFFFFF"/>
</g>
<defs>
<clipPath id="clip0_9971_4767">
<rect width="19" height="19" fill="white" transform="translate(20 17)"/>
</clipPath>
</defs>
</svg>
