<svg width="120" height="70" viewBox="0 0 120 70" fill="none" xmlns="http://www.w3.org/2000/svg">
<g clip-path="url(#clip0_9992_4755)">
<path d="M113 0H7C3.13401 0 0 3.13401 0 7V63C0 66.866 3.13401 70 7 70H113C116.866 70 120 66.866 120 63V7C120 3.13401 116.866 0 113 0Z" fill="#DEDEDE" fill-opacity="0.4"/>
<path d="M113 0.5H7C3.41015 0.5 0.5 3.41015 0.5 7V63C0.5 66.5899 3.41015 69.5 7 69.5H113C116.59 69.5 119.5 66.5899 119.5 63V7C119.5 3.41015 116.59 0.5 113 0.5Z" stroke="black" stroke-opacity="0.2" stroke-dasharray="2 2"/>
<path d="M74.1503 28.2963C73.7048 24.7433 70.4639 20.8055 67.7299 18.4933C66.8805 17.775 65.709 17.2246 64.0945 17.0394C62.1138 16.853 60.6338 17.3507 59.552 18.0598C57.9066 19.1386 54.8515 20.002 53.1156 20.9281C51.2721 21.9767 49.5889 24.386 48.1818 25.9728C47.5324 26.7052 47.0469 27.7133 47.0469 29.0904C47.1409 33.0566 51.4384 33.2736 51.826 33.2851C51.8466 33.2857 51.8642 33.2857 51.8849 33.2857H57.0838C58.296 33.2857 59.2787 32.303 59.2787 31.0908V29.5647C59.2787 29.1953 58.9792 28.8958 58.6098 28.8958C58.0006 28.8958 57.7085 28.1478 58.1565 27.7349L59.8163 26.2055C60.4098 25.6586 61.3237 25.6586 61.9173 26.2055L63.577 27.7349C64.0251 28.1478 63.733 28.8958 63.1237 28.8958C62.7543 28.8958 62.4548 29.1953 62.4548 29.5647V31.0908C62.4548 32.303 63.4375 33.2857 64.6498 33.2857H69.1744C69.1766 33.2857 69.1764 33.2857 69.1787 33.2857C69.2507 33.2855 73.5659 33.2571 74.1761 29.3384C74.2014 28.9658 74.1908 28.619 74.1503 28.2963Z" fill="#BEC4D5"/>
<path d="M38.1581 39.2231V44.9561C38.1581 45.7621 38.3531 46.3601 38.7431 46.7501C39.1418 47.1401 39.6921 47.3351 40.3941 47.3351C41.0874 47.3351 41.6291 47.1401 42.0191 46.7501C42.4178 46.3601 42.6171 45.7621 42.6171 44.9561V39.2231H43.8001V44.9431C43.8001 45.6971 43.6484 46.3341 43.3451 46.8541C43.0418 47.3654 42.6301 47.7467 42.1101 47.9981C41.5988 48.2494 41.0224 48.3751 40.3811 48.3751C39.7398 48.3751 39.1591 48.2494 38.6391 47.9981C38.1278 47.7467 37.7204 47.3654 37.4171 46.8541C37.1224 46.3341 36.9751 45.6971 36.9751 44.9431V39.2231H38.1581ZM46.9566 42.4731C47.1906 42.0657 47.5372 41.7277 47.9966 41.4591C48.4646 41.1817 49.0062 41.0431 49.6216 41.0431C50.2542 41.0431 50.8262 41.1947 51.3376 41.4981C51.8576 41.8014 52.2649 42.2304 52.5596 42.7851C52.8542 43.3311 53.0016 43.9681 53.0016 44.6961C53.0016 45.4154 52.8542 46.0567 52.5596 46.6201C52.2649 47.1834 51.8576 47.6211 51.3376 47.9331C50.8262 48.2451 50.2542 48.4011 49.6216 48.4011C49.0149 48.4011 48.4776 48.2667 48.0096 47.9981C47.5502 47.7207 47.1992 47.3784 46.9566 46.9711V51.6641H45.7736V41.1601H46.9566V42.4731ZM51.7926 44.6961C51.7926 44.1587 51.6842 43.6907 51.4676 43.2921C51.2509 42.8934 50.9562 42.5901 50.5836 42.3821C50.2196 42.1741 49.8166 42.0701 49.3746 42.0701C48.9412 42.0701 48.5382 42.1784 48.1656 42.3951C47.8016 42.6031 47.5069 42.9107 47.2816 43.3181C47.0649 43.7167 46.9566 44.1804 46.9566 44.7091C46.9566 45.2464 47.0649 45.7187 47.2816 46.1261C47.5069 46.5247 47.8016 46.8324 48.1656 47.0491C48.5382 47.2571 48.9412 47.3611 49.3746 47.3611C49.8166 47.3611 50.2196 47.2571 50.5836 47.0491C50.9562 46.8324 51.2509 46.5247 51.4676 46.1261C51.6842 45.7187 51.7926 45.2421 51.7926 44.6961ZM55.7417 38.6641V48.2841H54.5587V38.6641H55.7417ZM60.8649 48.4011C60.1976 48.4011 59.5909 48.2494 59.0449 47.9461C58.5076 47.6427 58.0829 47.2137 57.7709 46.6591C57.4676 46.0957 57.3159 45.4457 57.3159 44.7091C57.3159 43.9811 57.4719 43.3397 57.7839 42.7851C58.1046 42.2217 58.5379 41.7927 59.0839 41.4981C59.6299 41.1947 60.2409 41.0431 60.9169 41.0431C61.5929 41.0431 62.2039 41.1947 62.7499 41.4981C63.2959 41.7927 63.7249 42.2174 64.0369 42.7721C64.3576 43.3267 64.5179 43.9724 64.5179 44.7091C64.5179 45.4457 64.3533 46.0957 64.0239 46.6591C63.7033 47.2137 63.2656 47.6427 62.7109 47.9461C62.1563 48.2494 61.5409 48.4011 60.8649 48.4011ZM60.8649 47.3611C61.2896 47.3611 61.6883 47.2614 62.0609 47.0621C62.4336 46.8627 62.7326 46.5637 62.9579 46.1651C63.1919 45.7664 63.3089 45.2811 63.3089 44.7091C63.3089 44.1371 63.1963 43.6517 62.9709 43.2531C62.7456 42.8544 62.4509 42.5597 62.0869 42.3691C61.7229 42.1697 61.3286 42.0701 60.9039 42.0701C60.4706 42.0701 60.0719 42.1697 59.7079 42.3691C59.3526 42.5597 59.0666 42.8544 58.8499 43.2531C58.6333 43.6517 58.5249 44.1371 58.5249 44.7091C58.5249 45.2897 58.6289 45.7794 58.8369 46.1781C59.0536 46.5767 59.3396 46.8757 59.6949 47.0751C60.0503 47.2657 60.4403 47.3611 60.8649 47.3611ZM65.6314 44.6961C65.6314 43.9681 65.7787 43.3311 66.0734 42.7851C66.368 42.2304 66.771 41.8014 67.2824 41.4981C67.8024 41.1947 68.3787 41.0431 69.0114 41.0431C69.6354 41.0431 70.177 41.1774 70.6364 41.4461C71.0957 41.7147 71.438 42.0527 71.6634 42.4601V41.1601H72.8594V48.2841H71.6634V46.9581C71.4294 47.3741 71.0784 47.7207 70.6104 47.9981C70.151 48.2667 69.6137 48.4011 68.9984 48.4011C68.3657 48.4011 67.7937 48.2451 67.2824 47.9331C66.771 47.6211 66.368 47.1834 66.0734 46.6201C65.7787 46.0567 65.6314 45.4154 65.6314 44.6961ZM71.6634 44.7091C71.6634 44.1717 71.555 43.7037 71.3384 43.3051C71.1217 42.9064 70.827 42.6031 70.4544 42.3951C70.0904 42.1784 69.6874 42.0701 69.2454 42.0701C68.8034 42.0701 68.4004 42.1741 68.0364 42.3821C67.6724 42.5901 67.382 42.8934 67.1654 43.2921C66.9487 43.6907 66.8404 44.1587 66.8404 44.6961C66.8404 45.2421 66.9487 45.7187 67.1654 46.1261C67.382 46.5247 67.6724 46.8324 68.0364 47.0491C68.4004 47.2571 68.8034 47.3611 69.2454 47.3611C69.6874 47.3611 70.0904 47.2571 70.4544 47.0491C70.827 46.8324 71.1217 46.5247 71.3384 46.1261C71.555 45.7187 71.6634 45.2464 71.6634 44.7091ZM74.4165 44.6961C74.4165 43.9681 74.5639 43.3311 74.8585 42.7851C75.1532 42.2304 75.5562 41.8014 76.0675 41.4981C76.5875 41.1947 77.1682 41.0431 77.8095 41.0431C78.3642 41.0431 78.8799 41.1731 79.3565 41.4331C79.8332 41.6844 80.1972 42.0181 80.4485 42.4341V38.6641H81.6445V48.2841H80.4485V46.9451C80.2145 47.3697 79.8679 47.7207 79.4085 47.9981C78.9492 48.2667 78.4119 48.4011 77.7965 48.4011C77.1639 48.4011 76.5875 48.2451 76.0675 47.9331C75.5562 47.6211 75.1532 47.1834 74.8585 46.6201C74.5639 46.0567 74.4165 45.4154 74.4165 44.6961ZM80.4485 44.7091C80.4485 44.1717 80.3402 43.7037 80.1235 43.3051C79.9069 42.9064 79.6122 42.6031 79.2395 42.3951C78.8755 42.1784 78.4725 42.0701 78.0305 42.0701C77.5885 42.0701 77.1855 42.1741 76.8215 42.3821C76.4575 42.5901 76.1672 42.8934 75.9505 43.2921C75.7339 43.6907 75.6255 44.1587 75.6255 44.6961C75.6255 45.2421 75.7339 45.7187 75.9505 46.1261C76.1672 46.5247 76.4575 46.8324 76.8215 47.0491C77.1855 47.2571 77.5885 47.3611 78.0305 47.3611C78.4725 47.3611 78.8755 47.2571 79.2395 47.0491C79.6122 46.8324 79.9069 46.5247 80.1235 46.1261C80.3402 45.7187 80.4485 45.2464 80.4485 44.7091Z" fill="#B1AEAE"/>
</g>
<defs>
<clipPath id="clip0_9992_4755">
<rect width="120" height="70" fill="white"/>
</clipPath>
</defs>
</svg>
